<svg width="26" height="26" viewBox="0 0 26 26" fill="none" xmlns="http://www.w3.org/2000/svg">
<path fill-rule="evenodd" clip-rule="evenodd" d="M3.10254 11.4268C3.10254 6.86976 6.79554 3.17676 11.3525 3.17676C15.9085 3.17676 19.6025 6.86976 19.6025 11.4268C19.6025 15.9838 15.9085 19.6768 11.3525 19.6768C6.79554 19.6768 3.10254 15.9838 3.10254 11.4268ZM24.7035 22.8258L20.0285 18.1648C21.5375 16.2428 22.3555 13.8698 22.3525 11.4268C22.3525 5.35176 17.4275 0.426758 11.3525 0.426758C5.27754 0.426758 0.352539 5.35176 0.352539 11.4268C0.352539 17.5018 5.27754 22.4278 11.3525 22.4278C13.7945 22.4308 16.1675 21.6118 18.0895 20.1038L22.7505 24.7788C23.2865 25.3178 24.1565 25.3218 24.6955 24.7868C24.6985 24.7838 24.7015 24.7818 24.7035 24.7788C25.2435 24.2438 25.2465 23.3738 24.7115 22.8338L24.7035 22.8258Z" fill="#B3E3EF"/>
</svg>
